<?xml version="1.0" encoding="utf-8"?>
<!-- Generator: Adobe Illustrator 18.0.0, SVG Export Plug-In . SVG Version: 6.00 Build 0)  -->
<!DOCTYPE svg PUBLIC "-//W3C//DTD SVG 1.1//EN" "http://www.w3.org/Graphics/SVG/1.1/DTD/svg11.dtd">
<svg version="1.1" id="Слой_2" xmlns="http://www.w3.org/2000/svg" xmlns:xlink="http://www.w3.org/1999/xlink" x="0px" y="0px"
	 viewBox="0 422 1590 665" enable-background="new 0 422 1590 665" xml:space="preserve">
<path fill="#000000"    d="M1571.7,515.1h-258.4v-17h11.6v-8.8h-104.3v9h9.8v17
	h-117.2c0,0-0.4,3.6-7.6,15.1c-3.6,6-4.7,15.1-4.9,22.6c-7.2,1.2-14.4,2-21.8,2.4c-12,0.7-23.7-0.4-35.4-1.5
	c-0.4-1.6-0.9-2.8-1.9-3.9c-1.7-2.1-3.3-1.1-5.2,3.2c-0.9-0.1-1.9-0.1-2.9-0.3c-15-1.3-28.9-4.5-43-9.9c-6.7-2.5-13.4-4.9-19.9-8
	c-5.1-2.4-11.1-3.5-16-6.1c0-0.8,0-1.6-0.3-2.7c-1.7-9.6-17.8-37.2-34.8-41.2c-13.2-3.1-46.7,1.9-60.6,4.3V486h6.3v-49.1h-6.3v-11.8
	H849v11.6h-5.3v49.1h5.3v5.3l-5.3,1.3c0,0,1.6,4.4,5.3,6.3v11.8h-6.3v-8.3h-4.4v-16.4h-9v16.4h-4.4v8.3H815v12.2
	c-14.6,5.5-25.9,15.2-31.3,27.3c-10,2.4-15.9,5.2-15.9,8.4c0,2.8,4.5,5.5,12.4,7.6c0,2.5,0.3,5.1,0.9,7.6v54.5
	c-8.4,2.3-13.4,4.9-13.4,7.9c0,2.9,4.9,5.6,13.4,7.9v10.4h-12.4v14h-91.8v-11.8c7.4-1.6,11.6-3.5,11.6-5.6s-4.3-4-11.6-5.6v-61
	c7.4-1.6,11.6-3.5,11.6-5.6c0-2.8-7.5-5.2-19.7-7.1c-5.6-12.2-15.8-21.9-28.2-27.4c4.3-0.9,6.8-2.1,6.8-3.5c0-1.5-3.6-2.9-9.2-3.9
	l-16.8-20.5c1.2-0.9,2-2.4,2-4.1c0-2.9-2.4-5.3-5.3-5.3c-2.9,0-5.3,2.4-5.3,5.3c0,1.7,0.8,3.2,2,4.1l-15.9,20.3
	c-6.1,0.9-10.2,2.4-10.2,4c0,1.2,2.4,2.4,6.3,3.3c-12.7,5.5-22.9,15.2-28.6,27.5c-12.2,1.9-19.7,4.3-19.7,7.1c0,2,3.9,3.9,10.7,5.3
	v61.5c-6.8,1.6-10.7,3.5-10.7,5.3s3.9,3.9,10.7,5.3v11.9h-78.5V679h-28.1c-3.9-3.3-8.7-7.9-12.4-13.4V462.2c5.3-0.9,8.4-2.3,8.4-3.6
	c0-3.2-17.8-5.7-39.7-5.7c-21.9,0-39.7,2.5-39.7,5.7c0,1.5,3.5,2.7,9.4,3.7v202.4c-3.1,4.5-7.2,10.3-11.5,14.4h-28.9h-10.7h-3.6
	v-13.4v-14.3h-12.4v-95.9h-22.7v-42.2h-28.7v42.4h-22.5v95.9h-17.8v14.2h4.4v13.4h7.1v7.1c0,0,34.8,12.4,54.4,11.6
	c13.4-0.7,31.6-0.4,41.8-0.1v17.1h-12.4v38.4h-15.1v60.6h15.1v2.1l-119.4,88v-28.6h-7.2v42.8h-36.5v-26.7h-6.7v26.7h-20.1v6.3h-8
	v6.4H72.6v5.3h42.8v12.3h-8H72.6v5.7h31.2c-5.9,9.2-18.7,27.7-34.8,42.4c-16,14.8-29,30.1-34.9,37.4h-7.9v22.2h127.4h7.1v-22.3V984
	h10.7v-29.8h74.9v8.3c-0.8,0-1.6,0-2.4,0c-31.2,0-56.4,25.3-56.4,56.4s25.3,56.4,56.4,56.4s56.4-25.4,56.4-56.6
	c0-8.6-1.9-16.7-5.3-24.1h30.7v42.8h6.3v11.6h137.3v-33H488v-14.4c6.6,41.6,42.5,73.5,86.1,73.5c31.3,0,58.7-16.4,74.1-41.2H777
	c15.4,24.7,42.8,41.2,74.1,41.2s58.7-16.4,74.1-41.2h253.2c16.3,26.7,45.9,44.5,79.4,44.5c50.3,0,91.2-39.8,93-89.7l28.6-25.5v7.6
	h49.1v-6h42.8v-10.7h-42.8h-5.3h-13.4v-13h9v-27.7h76.6v-6h-76.6v-7.8h-9v-40.5v-9V635.7h17.1v13.1h15v10.7h25v-60.6h-25v9.8h-15
	v11.6h-17.1v-34.8h139v-12.4h9.8v-17.4h9v-5.9c3.3,0.3,7.5-0.1,8.4-3.9C1577.4,539.2,1571.7,515.1,1571.7,515.1z M135.8,1033.8
	h-10.4l3.3-49.9h7.1V1033.8z M153.6,1033.8h-10.3V984h10.3V1033.8z M254.4,665.8h43.7v9.8h-43.7V665.8L254.4,665.8z M281.6,690.8
	c-18.3,0-39.7-5.7-39.7-5.7l0.4-5.9h4h8H298v6.3h5.3v5.7C297.2,690.9,289.6,690.8,281.6,690.8z M193.7,913l9.2,5.1h-9.2V913
	L193.7,913z M342.7,918.1h-69.9v-21.4h-5.9v-9.8h-12.4v9.8h-8v21.4H213c-1.3-4.4-2-10,1.3-14.3c5.1-6.6,74.1-60.3,98.9-79.5v22.5
	h12.4v40.1h17V918.1z M1388.9,899.8h-9.8v-40.5h9.8V899.8z M1053.4,668.5c-6.1-8.6-10.4-23.5-12-42.1l20.9,1.5c0,0-8-10.3-10.3-13.6
	c-2.3-3.3,1.3-30.5,0-33.2c-0.8-1.6-5.7-2.1-9.5-2.3c0.7-9.1,1.1-15,1.2-19.1c9.8,8.6,24.1,17.1,36.2,17.2
	c12,0.1,22.5-5.1,32.8-10.6v102.1H1053.4z M1076.6,558.6c7.8-0.3,15.9-0.7,24.1-1.7c0.1,5.1,0.5,8.7,0.5,8.7h6.3
	c-7.2,4-15.1,7.1-23.3,8c-14,1.6-27-8.3-38.4-16.3C1055.9,558.3,1066.2,559,1076.6,558.6z M867.1,496c0,0,38.4-10.3,48.5-5.7
	S946,512,947,522.7c0.7,7.4,4.5,10.7,6.4,9c3.6,2.1,7.5,2.9,11.6,4.5c7.2,2.9,14.4,6,21.7,8.8c14.4,5.5,28.3,9.1,43.6,10.7
	c1.6,0.1,3.1,0.3,4.7,0.5c-1.7,4.8-3.6,12.2-5.7,21.8l-4.3-0.5c0,0-5.7,25.9-8.4,30.7s-12.4,13.8-12.4,13.8l23.1,2.9
	c0.4,8.2,1.1,15.1,1.5,19.3h-5.1c-0.1-1.3-0.5-2.8-1.3-4.1c-2.4-3.7-6.7-6.3-11-4c-2.9,1.6-4.7,4.8-5.6,8h-8.8v24.1h-78.5v-14.3H904
	v-10c9.5-2.3,15.1-5.2,15.1-8.3c0-3.1-5.6-6-15.1-8.3v-61c9.5-2.3,15.1-5.2,15.1-8.3c0-3.5-7.1-6.7-18.9-9.1
	c-5.5-11.6-16.7-21.1-31-26.6v-12.2h-10.7v-11.5C863.1,497.6,867.1,496,867.1,496z M768.6,959.1v-10.8h4.7
	C771.5,951.8,769.9,955.4,768.6,959.1z M732.1,886.8h29.4v9.8h-29.4V886.8z M727.7,964.9h39.2c-0.4,1.3-0.7,2.7-1.1,4h-38.2
	L727.7,964.9L727.7,964.9z M712.5,886.8v9.8h-49.1v-9.8H712.5z M519.9,886.8h134.6v9.8H519.9V886.8z M469.1,973.3v-8.4H490
	c-0.8,3.1-1.6,6.3-2.1,9.6v-1.2H469.1z M654.7,1020.5c4-10,6.3-21,6.3-32.5c0-8-1.1-15.8-3.2-23.3h46.5v4v18.7h23.1h36.1
	c0,0.1,0,0.3,0,0.4c0,11.5,2.3,22.5,6.3,32.5H654.7V1020.5z M955,997.4h-17.5c0.3-3.1,0.5-6.1,0.5-9.4c0-14.3-3.5-27.8-9.6-39.7
	h26.5L955,997.4L955,997.4z M955,913.5h-58.8c-13.2-8-28.7-12.7-45.3-12.7c-16.6,0-32.1,4.7-45.3,12.7h-36.9v-5.3v-11.6v-9.8h186.2
	L955,913.5L955,913.5z M974.5,1020.5v-4.4h195.1c0.5,1.5,1.1,2.9,1.7,4.4H974.5z M1348.3,964.3c-1.9-8.2-4.8-15.9-8.7-23.1h12.7
	l11.8,12L1348.3,964.3z"/>
</svg>
